<?xml version="1.0" ?><svg height="512px" version="1.1" viewBox="0 0 512 512" width="512px" xmlns="http://www.w3.org/2000/svg" xmlns:xlink="http://www.w3.org/1999/xlink"><title/><desc/><defs/><g fill="none" fill-rule="evenodd" id="SVG" stroke="none" stroke-width="1"><g id="Ball"><g transform="translate(2.000000, 0.000000)"><path d="M340.774586,27.7082195 C465.517078,76.4157697 527.498759,217.890696 479.207513,343.71604 C430.916267,469.533899 290.650528,532.04242 165.900614,483.342354 C41.1581217,434.634804 -20.8161391,293.152393 27.467687,167.334534 C75.7589333,41.5166753 216.032093,-20.9993307 340.774586,27.7082195" fill="#FEFEFE" id="Fill-1"/><path d="M336.654841,163.711405 C336.654841,187.728389 316.991072,207.202428 292.726725,207.202428 C268.469797,207.202428 248.798609,187.728389 248.798609,163.711405 C248.798609,139.694422 268.469797,120.220383 292.726725,120.220383 C316.991072,120.220383 336.654841,139.694422 336.654841,163.711405" fill="#FBAE3A" id="Fill-5"/><path d="M292.724499,131.445273 C274.641252,131.445273 259.934238,145.927312 259.934238,163.717393 C259.934238,181.499989 274.641252,195.974544 292.724499,195.974544 C310.815165,195.974544 325.52218,181.499989 325.52218,163.717393 C325.52218,145.927312 310.815165,131.445273 292.724499,131.445273 M292.724499,218.427318 C262.368093,218.427318 237.673368,193.886436 237.673368,163.717393 C237.673368,133.540865 262.368093,108.992499 292.724499,108.992499 C323.088325,108.992499 347.783049,133.540865 347.783049,163.717393 C347.783049,193.886436 323.088325,218.427318 292.724499,218.427318" fill="#2E2E30" id="Fill-7"/><path d="M250.88371,176.938334 L241.103768,169.551372 C149.693217,205.632979 77.2489275,281.912535 43.6424348,377.681099 C70.2961159,424.293057 112.280116,462.402898 165.906551,483.336367 C185.481275,490.985279 205.449275,495.879983 225.380174,498.23004 L226.270609,497.923186 C273.211362,420.999983 301.401043,322.477213 301.401043,215.078112 L290.841971,207.107378 C272.076058,206.32153 256.352464,193.920115 250.88371,176.938334" fill="#D73838" id="Fill-9"/><path d="M55.8977855,376.525529 C82.4995246,420.847304 121.827061,454.092378 169.917959,472.870381 C186.220336,479.232 203.131177,483.71507 220.264626,486.237265 C264.593438,410.975568 289.325264,317.16788 290.24538,220.680828 L286.765264,218.053853 C266.574655,215.860966 249.070191,202.65125 241.568278,183.933121 L239.446075,182.33149 C154.951235,217.582345 88.4876986,287.874495 55.8977855,376.525529 M225.377206,509.460918 C224.946829,509.460918 224.516452,509.438465 224.086075,509.386075 C202.901148,506.886333 181.96851,501.647352 161.881786,493.80385 C108.181148,472.840444 62.7689739,433.592996 34.0005101,383.283814 C32.3754667,380.439796 32.0638145,377.026975 33.1545971,373.935976 C67.9260754,274.821949 142.240278,196.521643 237.041901,159.100354 C240.625901,157.678345 244.67738,158.23218 247.76422,160.567268 L257.551583,167.946747 C259.391814,169.331334 260.757148,171.262273 261.469496,173.462645 C265.602597,186.305631 277.593786,195.309193 291.306481,195.885481 C293.547409,195.982777 295.706713,196.761139 297.509843,198.11579 L308.068916,206.094009 C310.881206,208.212054 312.53593,211.542549 312.53593,215.082603 C312.53593,320.124162 285.266365,422.665979 235.743351,503.802819 C234.407699,506.00319 232.352278,507.657211 229.940684,508.517901 L229.050249,508.83224 C227.870423,509.243874 226.623814,509.460918 225.377206,509.460918" fill="#2E2E30" id="Fill-11"/><path d="M256.046006,139.81417 C263.904093,128.018979 277.386759,120.220383 292.724499,120.220383 L294.29018,119.262398 C294.29018,81.9384036 279.909658,39.3903976 241.242528,11.5489583 C167.432904,15.31354 98.0531942,53.1689163 54.911629,115.437942 C77.1057159,110.805186 100.064093,108.365318 123.593832,108.365318 C167.781658,108.365318 210.025368,116.942278 248.803803,132.55444 L256.046006,139.81417 Z" fill="#F69033" id="Fill-13"/><path d="M123.593832,97.1374345 C168.241716,97.1374345 211.754296,105.542256 252.936904,122.134856 C253.812499,122.486616 254.636151,122.943156 255.39302,123.504475 C263.043339,116.476757 272.53389,111.746706 282.810991,109.883126 C281.185948,87.9018603 272.949426,50.0165469 237.873716,22.998376 C177.940035,27.1072336 121.434528,55.1208108 81.5430493,99.6820822 C95.4783536,97.9906399 109.539803,97.1374345 123.593832,97.1374345 M256.046006,151.03906 C253.114991,151.03906 250.287861,149.879 248.195339,147.775923 L242.57818,142.147761 C204.660499,127.179246 164.635455,119.590208 123.593832,119.590208 C101.26618,119.590208 78.9162667,121.89536 57.1673971,126.423336 C52.6707014,127.373836 48.1220638,125.442898 45.6140058,121.610958 C43.1059478,117.764049 43.1801507,112.772049 45.7920928,108.999983 C90.187687,44.9122831 163.040093,4.30269985 240.671165,0.336043178 C243.194064,0.268684858 245.6576,0.942268066 247.7056,2.41666687 C284.391513,28.8211286 305.428035,71.4065559 305.428035,119.260901 C305.428035,123.190136 303.380035,126.842454 300.048325,128.870688 L298.475223,129.828673 C296.738875,130.891437 294.750238,131.445273 292.724499,131.445273 C281.646006,131.445273 271.383745,136.908781 265.284267,146.076997 C263.429194,148.853656 260.438817,150.657363 257.136788,150.98667 C256.765774,151.024091 256.40218,151.03906 256.046006,151.03906" fill="#2E2E30" id="Fill-15"/><path d="M476.508012,160.767846 L470.653403,153.088998 C434.286562,139.033562 373.714736,135.328854 338.950678,147.580584 L333.964243,148.845424 C335.67091,153.485664 336.657809,158.477664 336.657809,163.70916 C336.657809,170.976374 334.832417,177.809502 331.649113,183.826845 L338.958099,186.431367 C398.691432,236.014575 441.781055,305.797796 458.328301,385.617406 C466.446099,372.579828 473.487954,358.606719 479.208997,343.713046 C502.798099,282.244836 500.01549,217.064434 476.508012,160.767846" fill="#5DB8E8" id="Fill-17"/><g fill="#2E2E30" id="Group-21" transform="translate(319.072464, 121.863177)"><path d="M26.8688696,55.8250795 C26.8985507,55.8550165 26.9282319,55.8774693 26.957913,55.899922 C82.3206957,101.853265 122.88742,164.069901 143.137391,233.321739 C145.534145,228.209991 147.745391,223.030885 149.76371,217.799388 C171.297391,161.674939 170.562783,100.221697 147.72313,44.5837241 L144.710493,40.6395202 C110.903652,28.529991 58.9542029,26.0377331 28.2490435,34.8242519 C28.5606957,37.1593403 28.7091014,39.501913 28.7091014,41.85197 C28.7091014,46.5670525 28.0857971,51.2746507 26.8688696,55.8250795 M139.25658,274.979118 C138.611014,274.979118 137.958029,274.919244 137.297623,274.806981 C132.830609,273.991196 129.298551,270.533469 128.371014,266.050399 C112.847768,191.222789 72.370087,123.273211 14.3137391,74.4833343 L8.86724638,72.5449115 C5.81008696,71.4596942 3.37623188,69.0797001 2.20382609,66.0261229 C1.03142029,62.98003 1.23176812,59.5672084 2.76034783,56.6782849 C5.20904348,52.0530135 6.44823188,47.0610135 6.44823188,41.85197 C6.44823188,38.1697151 5.77298551,34.4724918 4.45217391,30.880048 C3.35397101,27.8938291 3.56915942,24.5633343 5.0457971,21.7342849 C6.52243478,18.9127196 9.11953623,16.862033 12.1915362,16.0836702 L16.7104928,14.946063 C52.7656812,2.4698051 114.888348,5.02942129 155.566377,20.7463628 C157.480812,21.4798201 159.150377,22.7371754 160.404406,24.3837121 L166.259014,32.0625607 C166.837797,32.825955 167.320116,33.6567076 167.698551,34.5473343 C193.320812,95.9182489 194.31513,163.882795 170.510841,225.90484 C164.693333,241.060462 157.354667,255.80445 148.687768,269.725169 C146.632348,273.025727 143.040928,274.979118 139.25658,274.979118" id="Fill-19"/></g><path d="M139.4176,389.605018 C89.983629,370.303117 48.1702957,339.774829 15.6100638,302.084107 C31.0220058,381.724095 85.3459478,451.881528 165.900614,483.337864 C290.650528,532.045414 430.916267,469.529408 479.207513,343.711549 C484.461078,330.030326 488.327049,316.161996 491.035455,302.24876 C406.191861,400.165306 266.616209,439.270554 139.4176,389.605018" fill="#010201" fill-opacity="0.3" id="Fill-22"/><path d="M253.60102,22.4557673 C160.91418,22.4557673 73.2657159,79.1041151 37.8486725,171.385015 C-8.14228406,291.230436 51.1013101,426.470976 169.922412,472.873375 C227.4816,495.341117 290.279513,493.859234 346.725658,468.704643 C403.186643,443.542568 446.550817,397.716457 468.833948,339.661069 C514.824904,219.815647 455.58131,84.5751076 336.760209,38.1801931 C309.423861,27.5151256 281.286122,22.4557673 253.60102,22.4557673 M253.051919,511.04309 C222.695513,511.04309 191.856788,505.504739 161.886238,493.806844 C31.615629,442.943827 -33.3341681,294.673195 17.0941217,163.279563 C67.5149913,31.8934165 214.518354,-33.6237769 344.788962,17.2467238 C475.066991,68.1097403 540.016788,216.372889 489.588499,347.76652 C450.758122,448.931234 354.665368,511.04309 253.051919,511.04309" fill="#2E2E30" id="Fill-3"/></g></g></g></svg>