<?xml version="1.0" ?><svg height="512px" version="1.1" viewBox="0 0 512 512" width="512px" xmlns="http://www.w3.org/2000/svg" xmlns:xlink="http://www.w3.org/1999/xlink"><title/><desc/><defs/><g fill="none" fill-rule="evenodd" id="SVG" stroke="none" stroke-width="1"><g id="Baguette"><g id="5" transform="translate(0.000000, 136.000000)"><path d="M501.444156,151.856959 C501.444156,228.99154 391.424,229.450436 255.710753,229.450436 C119.990857,229.450436 9.9707013,228.99154 9.9707013,151.856959 C9.9707013,74.7223789 119.990857,9.97801439 255.710753,9.97801439 C391.424,9.97801439 501.444156,74.7223789 501.444156,151.856959" fill="#CB9963" id="Fill-1"/><path d="M435.65681,55.7579664 C452.193745,74.8055124 461.549382,96.1741455 461.549382,118.606887 C461.549382,195.734817 351.529226,196.193714 215.815979,196.193714 C133.144603,196.193714 60.068239,195.994193 15.524239,178.423098 C39.3688104,229.074673 137.819096,229.447111 255.712083,229.447111 C391.42533,229.447111 501.445486,228.988214 501.445486,151.860285 C501.445486,115.121931 476.457226,81.2167674 435.65681,55.7579664" fill="#010202" id="Fill-3" opacity="0.3"/><path d="M255.708094,219.472422 C109.016769,219.472422 19.9487169,214.916707 19.9487169,151.854964 C19.9487169,110.733813 55.695626,73.3104396 110.353288,48.9157474 C101.83547,62.0109353 95.5784312,78.9568665 96.6888727,100.278945 C96.9681455,105.606139 101.370016,109.736211 106.642951,109.736211 C106.815834,109.736211 106.995366,109.736211 107.168249,109.72291 C112.667262,109.43693 116.896249,104.741551 116.610327,99.2414388 C114.422691,57.2290967 149.571158,36.4058193 156.626119,32.6548361 C183.55599,25.4454996 213.092405,21.0227978 243.991938,20.124956 C230.354119,34.8894644 216.42373,59.6898481 216.496873,99.7734932 C216.503522,105.280256 220.965236,109.736211 226.470899,109.736211 L226.484197,109.736211 C231.996509,109.72956 236.451574,105.253653 236.444925,99.7468905 C236.351834,43.8013749 267.510691,24.4478977 275.330327,20.4707914 C312.274119,22.2664748 347.110068,29.0501679 377.584042,39.6114468 C365.349236,52.9593605 353.160977,71.7009752 354.650431,100.278945 C354.929704,105.606139 359.331574,109.736211 364.604509,109.736211 C364.777392,109.736211 364.956925,109.736211 365.129808,109.72291 C370.628821,109.43693 374.857808,104.748201 374.571886,99.2414388 C373.255314,74.0486651 385.397029,59.5435332 397.764821,47.4525979 C454.284301,71.8073861 491.46747,109.909129 491.46747,151.854964 C491.46747,214.916707 402.399418,219.472422 255.708094,219.472422 M273.874119,0.425643485 C273.734483,0.418992806 273.594847,0.405691447 273.45521,0.405691447 C267.583834,0.166266986 261.67921,0 255.708094,0 C114.708613,0 0.000664935065,68.1229097 0.000664935065,151.854964 C0.000664935065,239.42446 118.498743,239.42446 255.708094,239.42446 C392.917444,239.42446 511.415522,239.42446 511.415522,151.854964 C511.415522,71.7541807 406.415626,5.98561151 273.874119,0.425643485" fill="#2E2E30" id="Fill-5"/></g></g></g></svg>