<?xml version="1.0" ?><svg height="512px" version="1.1" viewBox="0 0 512 512" width="512px" xmlns="http://www.w3.org/2000/svg" xmlns:xlink="http://www.w3.org/1999/xlink"><title/><desc/><defs/><g fill="none" fill-rule="evenodd" id="SVG" stroke="none" stroke-width="1"><g id="Cocktail"><g transform="translate(38.000000, 0.000000)"><path d="M424.143717,96.8601209 C424.143717,111.808957 348.235624,123.934837 254.597277,123.934837 C160.951775,123.934837 85.0436816,111.808957 85.0436816,96.8601209 C85.0436816,81.9112846 160.951775,69.7854045 254.597277,69.7854045 C348.235624,69.7854045 424.143717,81.9112846 424.143717,96.8601209" fill="#FDFEFE" id="Fill-1"/><path d="M100.417056,96.8615466 C117.453268,103.854779 168.955432,113.236118 254.594415,113.236118 C340.233398,113.236118 391.735562,103.854779 408.771774,96.8615466 C391.735562,89.8683142 340.233398,80.4798462 254.594415,80.4798462 C168.955432,80.4798462 117.453268,89.8683142 100.417056,96.8615466 M254.594415,134.62215 C208.759063,134.62215 165.571086,131.763551 133.008381,126.559616 C91.8667524,119.994104 74.3153759,111.111773 74.3153759,96.8615466 C74.3153759,82.6113207 91.8667524,73.7289888 133.008381,67.1563483 C165.571086,61.9595426 208.759063,59.0938143 254.594415,59.0938143 C300.429767,59.0938143 343.610589,61.9595426 376.180449,67.1563483 C417.322077,73.7289888 434.873454,82.6113207 434.873454,96.8615466 C434.873454,111.111773 417.322077,119.994104 376.180449,126.559616 C343.610589,131.763551 300.429767,134.62215 254.594415,134.62215" fill="#2E2E30" id="Fill-3"/><path d="M254.594415,123.932699 C181.84886,123.932699 119.821595,116.618676 95.7591082,106.339123 L253.370899,245.83308 L408.871945,108.085649 C382.147774,117.431345 323.139946,123.932699 254.594415,123.932699" fill="#FDFEFE" id="Fill-5"/><polygon fill="#F5903D" id="Fill-15" points="253.354442 230.840759 341.469078 152.717585 162.98596 152.717585"/><path d="M337.659721,120.46032 L224.738472,220.48992 L253.373045,245.832368 L408.866936,108.084936 C393.912848,113.317385 368.841498,117.651621 337.659721,120.46032" fill="#010201" fill-opacity="0.3" id="Fill-29"/><path d="M135.129858,126.883258 L253.367321,231.532241 L370.932208,127.382266 C339.700345,131.987391 298.787679,134.625002 254.590837,134.625002 C208.927207,134.625002 166.726629,131.773531 135.129858,126.883258 M253.367321,256.532512 C250.820118,256.532512 248.272914,255.634299 246.240875,253.830743 L88.6290851,114.336786 C84.6937989,110.850863 83.8709663,105.040991 86.6900622,100.606954 C89.5163132,96.1871738 95.140195,94.4406478 99.9841746,96.5079642 C119.481729,104.834259 174.854784,113.23897 254.590837,113.23897 C319.680471,113.23897 378.845711,107.25801 405.312299,97.9978578 C410.170589,96.3226186 415.515423,98.2544902 418.119867,102.660013 C420.717156,107.065535 419.829928,112.682933 416.001968,116.076183 L260.500922,253.830743 C258.468883,255.634299 255.92168,256.532512 253.367321,256.532512" fill="#2E2E30" id="Fill-7"/><path d="M346.205731,476.19201 C346.205731,488.809769 305.192894,499.039421 254.592268,499.039421 C203.998798,499.039421 162.98596,488.809769 162.98596,476.19201 C162.98596,463.574251 203.998798,453.344599 254.592268,453.344599 C305.192894,453.344599 346.205731,463.574251 346.205731,476.19201" fill="#FDFEFE" id="Fill-9"/><path d="M175.978129,476.195574 C184.900496,481.242678 212.003885,488.342841 254.590837,488.342841 C297.177789,488.342841 324.288334,481.242678 333.210701,476.195574 C324.288334,471.141342 297.184944,464.04118 254.590837,464.04118 C211.99673,464.04118 184.900496,471.141342 175.978129,476.195574 M254.590837,509.728872 C237.50454,509.728872 152.251931,508.117791 152.251931,476.195574 C152.251931,444.266229 237.50454,442.655148 254.590837,442.655148 C271.68429,442.655148 356.936899,444.266229 356.936899,476.195574 C356.936899,508.117791 271.68429,509.728872 254.590837,509.728872" fill="#2E2E30" id="Fill-11"/><path d="M253.370183,464.040467 C247.445789,464.040467 242.637584,459.249996 242.637584,453.347451 L242.637584,245.838783 C242.637584,239.936239 247.445789,235.145767 253.370183,235.145767 C259.294578,235.145767 264.102782,239.936239 264.102782,245.838783 L264.102782,453.347451 C264.102782,459.249996 259.294578,464.040467 253.370183,464.040467" fill="#2E2E30" id="Fill-13"/><path d="M76.2794414,13.6271105 C31.4457989,23.2722109 2.95432669,67.3060506 12.6351308,111.967214 L174.983575,77.0366951 C165.302771,32.3684031 121.113084,3.98201015 76.2794414,13.6271105" fill="#FBAE3A" id="Fill-17"/><path d="M93.9603246,22.4317399 C88.8372975,22.4317399 83.678495,22.980648 78.5483128,24.0784643 C59.6660941,28.1418104 43.4956453,39.283933 33.0277839,55.4589018 C24.5275657,68.597054 20.6137447,83.774008 21.629764,99.0935355 L161.461216,69.0105173 C156.044831,54.6391039 146.18515,42.420551 132.998364,33.9516824 C121.178195,26.3525124 107.705206,22.4317399 93.9603246,22.4317399 M12.6286912,122.668071 C7.67738565,122.668071 3.22693469,119.246306 2.14651975,114.227717 C-3.1410739,89.8333837 1.41670304,64.8473698 14.9898629,43.8676725 C28.5630228,22.8951039 49.5273658,8.44527501 74.0191561,3.17718248 C98.4894813,-2.09803872 123.582297,2.4500574 144.632501,15.9802869 C165.67555,29.5033877 180.186023,50.3832835 185.473617,74.7776172 C186.074642,77.5506727 185.552322,80.4520444 184.006828,82.8330226 C182.461334,85.2140008 180.028612,86.88924 177.252446,87.4880489 L14.8968471,122.425696 C14.1384101,122.589656 13.3728181,122.668071 12.6286912,122.668071" fill="#2E2E30" id="Fill-19"/><path d="M93.8107838,94.5040931 L30.4169004,41.1103001" fill="#FBAE3A" id="Fill-21"/><path d="M93.8064907,105.197822 C91.3594582,105.197822 88.8981156,104.370895 86.880387,102.67427 L23.4793486,49.2733485 C18.9573469,45.4666348 18.3849417,38.7157774 22.2129019,34.2104534 C26.0337071,29.6980006 32.8023994,29.1205778 37.3387111,32.9415488 L100.746905,86.3353417 C105.268906,90.1491841 105.841311,96.8929128 102.006196,101.405366 C99.8882967,103.907531 96.8617038,105.197822 93.8064907,105.197822" fill="#2E2E30" id="Fill-23"/><path d="M93.8107838,94.5040931 L129.443012,19.8026837" fill="#FBAE3A" id="Fill-25"/><path d="M93.8064907,105.201386 C92.2609965,105.201386 90.6940371,104.866338 89.2057834,104.160599 C83.8537941,101.629919 81.5784832,95.2497527 84.1185316,89.9175021 L119.750759,15.2160927 C122.290808,9.87671341 128.694592,7.6169227 134.046581,10.1476031 C139.39857,12.6782836 141.673881,19.0584498 139.133833,24.3907004 L103.501605,99.0921098 C101.669908,102.948724 97.8204827,105.201386 93.8064907,105.201386" fill="#2E2E30" id="Fill-27"/></g></g></g></svg>