<?xml version="1.0" ?><svg height="512px" version="1.1" viewBox="0 0 512 512" width="512px" xmlns="http://www.w3.org/2000/svg" xmlns:xlink="http://www.w3.org/1999/xlink"><title/><desc/><defs/><g fill="none" fill-rule="evenodd" id="SVG" stroke="none" stroke-width="1"><g id="Croissant"><g id="12" transform="translate(0.000000, 102.000000)"><path d="M436.523691,155.174229 C435.998037,117.798229 410.281984,82.702336 369.212757,71.602176 L341.455531,64.0996693 C330.348544,38.2880427 303.799637,20.8049493 269.577557,20.8049493 L236.973397,20.8049493 C202.751317,20.8049493 176.209237,38.2880427 165.102251,64.0996693 L137.345024,71.602176 C96.2757973,82.702336 70.559744,117.798229 70.0340907,155.174229 C34.4603307,178.105003 -0.847189333,216.505003 10.123264,276.088149 C20.117504,330.353323 82.8818773,295.462229 125.241344,267.479723 C139.215531,276.996096 157.367637,280.457216 174.843904,275.739989 L200.505344,268.804096 C211.926357,285.215403 231.471104,295.796736 253.275477,295.796736 L253.275477,295.796736 C275.086677,295.796736 294.631424,285.215403 306.052437,268.804096 L331.713877,275.739989 C349.190144,280.457216 367.342251,276.996096 381.316437,267.479723 C423.675904,295.462229 486.440277,330.353323 496.434517,276.088149 C507.404971,216.505003 472.097451,178.105003 436.523691,155.174229" fill="#CB9963" id="Fill-1"/><path d="M495.75936,224.470357 C483.98336,274.332331 452.369067,253.196971 410.8288,225.753771 C396.854613,235.270144 349.190827,225.849344 331.71456,221.125291 L321.624747,218.394624 C310.306133,234.662571 275.72224,241.059157 253.876907,241.175211 L253.876907,241.147904 C253.678933,241.147904 253.48096,241.182037 253.27616,241.182037 C253.078187,241.182037 252.880213,241.147904 252.675413,241.147904 L252.675413,241.175211 C230.83008,241.059157 196.253013,234.662571 184.927573,218.394624 L174.844587,221.125291 C157.36832,225.849344 109.704533,235.270144 95.7303467,225.753771 C54.19008,253.196971 22.5757867,274.332331 10.7997867,224.470357 C7.69365333,237.871104 7.07925333,252.719104 10.1239467,269.260117 C20.1181867,323.525291 82.88256,288.641024 125.242027,260.651691 C139.216213,270.174891 157.36832,273.636011 174.844587,268.911957 L200.506027,261.976064 C211.817813,278.230357 231.1168,288.736597 252.675413,288.934571 C252.880213,288.934571 253.078187,288.968704 253.27616,288.968704 C253.48096,288.968704 253.678933,288.934571 253.876907,288.934571 C275.442347,288.736597 294.741333,278.230357 306.05312,261.976064 L331.71456,268.911957 C349.190827,273.636011 367.342933,270.174891 381.31712,260.651691 C423.66976,288.641024 486.44096,323.525291 496.4352,269.260117 C499.479893,252.719104 498.865493,237.871104 495.75936,224.470357" fill="#010202" id="Fill-3" opacity="0.3"/><path d="M448.761856,151.194965 C448.686763,152.341845 448.550229,153.481899 448.434176,154.621952 C448.543403,153.481899 448.693589,152.341845 448.761856,151.194965 M488.527189,263.664299 C485.789696,278.546432 479.085909,281.324885 476.887723,282.239659 C460.080469,289.236992 427.175936,272.238592 400.524629,255.629312 L400.524629,255.629312 C404.368043,251.512832 407.767723,246.932139 410.471083,241.825792 L437.934763,189.963605 C442.447189,181.443925 445.450923,172.439552 447.212203,163.264512 C447.205376,163.264512 447.212203,163.264512 447.205376,163.264512 C481.850709,190.653099 495.763456,224.383659 488.527189,263.664299 M355.516416,55.9766187 C355.632469,56.3316053 355.728043,56.6934187 355.837269,57.055232 C355.728043,56.7002453 355.639296,56.3316053 355.516416,55.9766187 M352.642389,48.576512 C353.079296,49.5732053 353.516203,50.563072 353.912149,51.5734187 C353.509376,50.563072 353.079296,49.5732053 352.642389,48.576512 M336.551936,255.287979 L323.485696,251.751765 C325.294763,247.505579 326.728363,243.061419 327.643136,238.412459 L357.844309,99.0324053 C359.933269,88.4237653 360.035669,78.0404053 358.445056,68.1417387 L358.445056,68.1485653 L368.705536,70.920192 C393.165483,77.5284053 412.730709,94.0557653 422.376789,116.249259 C431.374336,136.961365 430.452736,160.335872 419.844096,180.372139 L392.380416,232.241152 C382.140416,251.574272 358.643029,261.268139 336.551936,255.287979 M255.444309,274.989739 C229.864789,274.989739 207.944363,257.861632 203.261269,234.077525 L173.142016,95.0729387 C169.360043,75.8831787 173.544789,57.6969387 184.918016,43.8592853 C197.322069,28.7860053 216.573269,20.477952 239.142229,20.477952 L271.746389,20.477952 C294.315349,20.477952 313.566549,28.7860053 325.970603,43.8592853 C337.343829,57.6969387 341.528576,75.8831787 337.787563,94.8886187 L307.586389,234.275499 C302.951083,257.861632 281.017003,274.989739 255.444309,274.989739 M155.372203,55.990272 C155.262976,56.3111253 155.181056,56.645632 155.085483,56.9664853 C155.181056,56.645632 155.262976,56.317952 155.372203,55.990272 M158.246229,48.596992 C157.809323,49.580032 157.386069,50.563072 156.983296,51.566592 C157.379243,50.563072 157.809323,49.580032 158.246229,48.596992 M187.430229,251.744939 L174.336683,255.287979 C152.252416,261.261312 128.741376,251.574272 118.508203,232.241152 L91.0445227,180.372139 C80.4358827,160.335872 79.5142827,136.961365 88.5118293,116.249259 C98.1579093,94.0557653 117.723136,77.5284053 142.183083,70.920192 L152.457216,68.1417387 C150.866603,78.0745387 150.975829,88.5193387 153.085269,99.223552 L183.204523,238.221312 C184.132949,242.938539 185.593856,247.444139 187.437056,251.751765 C187.430229,251.751765 187.430229,251.751765 187.430229,251.744939 M62.1267627,151.194965 C62.1950293,152.341845 62.345216,153.481899 62.4544427,154.621952 C62.3383893,153.481899 62.201856,152.341845 62.1267627,151.194965 M34.000896,282.239659 C31.8027093,281.324885 25.0989227,278.546432 22.3614293,263.664299 C15.1251627,224.383659 29.0379093,190.653099 63.6832427,163.264512 C63.676416,163.264512 63.6832427,163.264512 63.676416,163.264512 C65.437696,172.439552 68.4414293,181.443925 72.953856,189.963605 L100.417536,241.825792 C103.120896,246.932139 106.520576,251.512832 110.363989,255.629312 C83.7126827,272.231765 50.8218027,289.230165 34.000896,282.239659 M448.775509,139.446272 C448.946176,142.033579 448.959829,144.620885 448.905216,147.208192 C449.116843,133.950805 446.611456,120.638805 441.163776,108.084565 C429.019136,80.1498453 404.559189,59.3967787 374.057643,51.1501653 L350.949376,44.9037653 L350.949376,44.9037653 C348.423509,39.9612587 345.392469,35.244032 341.787989,30.8544853 C325.663403,11.2482987 300.131669,-0.002048 271.746389,-0.002048 L239.142229,-0.002048 C210.756949,-0.002048 185.225216,11.2482987 169.100629,30.8544853 C165.496149,35.2372053 162.471936,39.954432 159.946069,44.9037653 L136.830976,51.1501653 C106.329429,59.3967787 81.8694827,80.1498453 69.7248427,108.084565 C64.2771627,120.638805 61.771776,133.950805 61.9902293,147.208192 C61.9287893,144.620885 61.9424427,142.033579 62.1131093,139.446272 C25.5767893,164.459179 -9.22555733,205.248512 2.215936,267.371179 C5.37668267,284.506112 13.418496,295.872512 26.1502293,301.156352 C31.3043627,303.293099 36.929536,304.269312 42.9233493,304.269312 C67.3082027,304.269312 97.7892693,288.131072 127.621803,268.920832 C137.793536,274.423125 149.344256,277.508779 161.236309,277.508779 C167.353003,277.508779 173.558443,276.716885 179.681963,275.058005 L198.782976,269.897045 C212.381696,285.625685 232.882176,295.469739 255.444309,295.469739 C278.020096,295.469739 298.541056,285.605205 312.132949,269.903872 L312.132949,269.903872 L331.206656,275.058005 C337.337003,276.716885 343.528789,277.508779 349.652309,277.508779 C361.537536,277.508779 373.088256,274.423125 383.266816,268.914005 C413.099349,288.124245 443.580416,304.269312 467.965269,304.269312 C473.959083,304.269312 479.591083,303.293099 484.738389,301.156352 C497.470123,295.872512 505.511936,284.506112 508.672683,267.371179 C520.114176,205.248512 485.311829,164.459179 448.775509,139.446272" fill="#2E2E30" id="Fill-5"/></g></g></g></svg>