<?xml version="1.0" ?><svg height="512px" version="1.1" viewBox="0 0 512 512" width="512px" xmlns="http://www.w3.org/2000/svg" xmlns:xlink="http://www.w3.org/1999/xlink"><title/><desc/><defs/><g fill="none" fill-rule="evenodd" id="SVG" stroke="none" stroke-width="1"><g id="Hat"><g transform="translate(0.000000, 113.000000)"><path d="M254.57024,130.379016 C300.02944,130.385399 342.57024,135.102903 379.05024,143.280336 C379.16544,141.09075 379.38304,138.933082 379.38304,136.717962 C379.39584,67.959865 323.53024,12.2052256 254.59584,12.1924583 C185.66144,12.179691 129.76384,67.9087959 129.75104,136.666893 C129.75104,138.882013 129.96864,141.046064 130.08384,143.229266 C166.57024,135.064602 209.11104,130.372632 254.57024,130.379016" fill="#FBAE3A" id="Fill-1"/><g id="Group-5" transform="translate(118.964706, 2.001269)"><path d="M135.605534,128.377747 C181.064734,128.384131 223.605534,133.101635 260.085534,141.279067 C260.200734,139.089481 260.418334,136.931814 260.418334,134.716694 C260.418334,127.681931 259.695134,120.825911 258.575134,114.11033 C222.427934,106.137174 180.443934,101.547343 135.611934,101.54096 C90.7735341,101.528192 48.7895341,106.105256 12.6423341,114.059261 C11.5159341,120.774842 10.7927341,127.630862 10.7863341,134.665625 C10.7863341,136.880745 11.0039341,139.044796 11.1191341,141.227998 C47.6055341,133.063333 90.1463341,128.371364 135.605534,128.377747" fill="#D73838" id="Fill-11"/><path d="M135.604254,118.8023 C175.732254,118.808683 215.245854,122.498423 250.676254,129.50765 C250.554654,127.107405 250.337054,124.636939 250.029854,122.083486 C215.021854,114.908284 175.629854,111.122791 135.610654,111.110024 L135.469854,111.110024 C95.5082541,111.110024 56.1546541,114.88275 21.1850541,122.038801 C20.8778541,124.592254 20.6602541,127.056336 20.5386541,129.462965 C55.9370541,122.472888 95.4058541,118.8023 135.469854,118.8023 L135.604254,118.8023 Z M260.084254,150.854515 C259.386654,150.854515 258.676254,150.777911 257.978654,150.61832 C221.057054,142.345134 178.733854,137.959579 135.604254,137.953195 L135.469854,137.953195 C92.3914541,137.953195 50.1258541,142.319599 13.2170541,150.573635 C10.4714541,151.18008 7.57225412,150.560868 5.31305412,148.856438 C3.06025412,147.145625 1.67145412,144.534719 1.53065412,141.719538 L1.40905412,139.77253 C1.29385412,138.0681 1.18505412,136.363671 1.19145412,134.633706 C1.19145412,127.694699 1.84425412,120.436509 3.17545412,112.482504 C3.81545412,108.626791 6.74665412,105.54988 10.5738541,104.707241 C48.4618541,96.3702179 91.6554541,91.9591284 135.469854,91.9591284 L135.610654,91.9591284 C179.482654,91.9718957 222.721054,96.3957524 260.647454,104.75831 C264.468254,105.600949 267.399454,108.67786 268.039454,112.533573 C269.370654,120.493962 270.023454,127.745768 270.023454,134.716694 C270.023454,136.459425 269.908254,138.170238 269.793054,139.881052 L269.671454,141.796141 C269.517854,144.611323 268.129054,147.215845 265.876254,148.913891 C264.199454,150.184233 262.157854,150.854515 260.084254,150.854515 L260.084254,150.854515 Z" fill="#2E2E30" id="Fill-13"/><path d="M207.506974,132.191967 C225.209374,134.311333 244.358174,135.67743 260.050974,139.194811 C260.166174,137.03076 260.543774,134.88586 260.377374,132.702658 C255.263774,64.110535 203.039774,15.2821361 134.713374,11.0434046 C134.713374,11.0434046 201.343774,39.3675785 207.506974,132.191967" fill="#010201" fill-opacity="0.3" id="Fill-21"/><path d="M135.604254,118.8023 C175.738654,118.808683 215.265054,122.504806 250.708254,129.514034 C247.988254,68.5439673 197.409054,19.7794046 135.629854,19.7666373 L135.604254,19.7666373 C104.833054,19.7666373 75.9178541,31.7167959 54.1514541,53.4147601 C33.6202541,73.8806834 21.7866541,100.723855 20.5130541,129.469348 C55.9178541,122.479272 95.3930541,118.8023 135.469854,118.8023 L135.604254,118.8023 Z M260.084254,150.854515 C259.386654,150.854515 258.676254,150.777911 257.978654,150.61832 C221.057054,142.345134 178.733854,137.959579 135.604254,137.953195 L135.469854,137.953195 C92.3914541,137.953195 50.1258541,142.319599 13.2170541,150.573635 C10.4714541,151.18008 7.57225412,150.560868 5.31305412,148.856438 C3.06025412,147.145625 1.67145412,144.534719 1.53065412,141.719538 L1.40905412,139.77253 C1.29385412,138.0681 1.18505412,136.363671 1.19145412,134.633706 C1.19785412,98.8534506 15.1882541,65.186177 40.5770541,39.8686936 C65.9658541,14.5575939 99.7130541,0.615742199 135.604254,0.615742199 L135.629854,0.615742199 C209.748254,0.628509463 270.036254,60.7878547 270.023454,134.716694 C270.023454,136.459425 269.908254,138.170238 269.793054,139.881052 L269.671454,141.796141 C269.517854,144.611323 268.129054,147.215845 265.876254,148.913891 C264.199454,150.184233 262.157854,150.854515 260.084254,150.854515 L260.084254,150.854515 Z" fill="#2E2E30" id="Fill-3"/></g><path d="M499.50208,223.183615 C499.48928,274.41226 389.81888,275.950715 254.53568,275.925181 C119.25888,275.899646 9.58848,274.316505 9.60128,223.087861 C9.61408,171.859216 119.29088,130.352843 254.56768,130.378377 C389.85088,130.403912 499.51488,171.954971 499.50208,223.183615" fill="#C88835" id="Fill-6"/><g fill="#2E2E30" id="Group-10" transform="translate(0.000000, 119.525565)"><path d="M254.42496,20.4288982 C113.72096,20.4288982 19.21216,63.4035069 19.19936,103.562934 C19.19296,146.773737 144.22336,146.799272 254.54016,146.824806 C325.72736,146.837573 383.54496,146.326883 426.29056,139.78366 C489.89376,130.048622 489.90016,110.189144 489.90016,103.658688 L489.90016,103.658688 C489.90656,83.4417269 466.02176,62.7906783 424.36416,47.0103407 C379.16096,29.8830568 318.86016,20.4416655 254.56576,20.4288982 L254.42496,20.4288982 Z M257.03616,165.975701 L254.54016,165.975701 C117.95136,165.943783 -0.00704,165.924632 -0.00064,103.562934 C0.01216,46.1996194 111.76896,1.27800307 254.43136,1.27800307 L254.56576,1.27800307 C321.13856,1.29077033 383.85856,11.1726322 431.18016,29.1042537 C481.43296,48.1466271 509.10656,74.6259315 509.10016,103.665072 L509.10016,103.658688 L509.10016,103.665072 C509.09376,142.04985 463.50016,153.463783 429.20256,158.717512 C385.62496,165.382024 327.89056,165.975701 257.03616,165.975701 L257.03616,165.975701 Z" id="Fill-8"/></g><path d="M254.57024,130.379016 C175.29984,130.366249 104.85504,144.620898 60.08704,166.727415 C60.08704,166.727415 151.03744,165.999681 184.87424,198.039128 C218.71744,230.072192 254.55104,228.89122 254.55104,228.89122 C254.55104,228.89122 290.38464,230.08496 324.23424,198.064663 C358.09024,166.044366 449.04064,166.804018 449.04064,166.804018 C404.27904,144.678351 333.84064,130.391783 254.57024,130.379016" fill="#FBAE3A" id="Fill-15"/><path d="M254.23104,219.322795 C256.05504,219.278109 287.35104,219.756882 317.62944,191.11991 C337.90464,171.937097 375.42784,163.600074 405.24544,159.986938 C363.19744,147.098386 310.54464,139.967869 254.57024,139.955102 L254.43584,139.955102 C198.50624,139.955102 145.89824,147.060084 103.88864,159.923102 C133.69344,163.555388 171.21664,171.905179 191.47904,191.094375 C222.03264,220.005843 253.90464,219.310028 254.23104,219.322795 M255.05664,238.47369 L253.53344,238.47369 C248.06144,238.47369 212.16384,237.069291 178.26944,204.978774 C152.85504,180.931634 84.53504,176.175828 60.15744,176.303501 L60.08064,176.303501 C55.63904,176.303501 51.77344,173.258508 50.74304,168.943173 C49.70624,164.602304 51.81184,160.127378 55.82464,158.148452 C103.89504,134.414109 176.27904,120.804207 254.43584,120.804207 L254.57024,120.804207 C332.77824,120.816974 405.21344,134.458795 453.30304,158.225056 C457.30944,160.203982 459.42144,164.685291 458.37824,169.026161 C457.34784,173.335112 453.48224,176.380104 449.04064,176.380104 C448.52224,176.386488 448.07424,176.367337 447.57504,176.373721 C422.20544,176.373721 355.79264,181.410406 330.84544,205.010693 C296.95744,237.062907 261.08544,238.47369 255.05664,238.47369" fill="#2E2E30" id="Fill-17"/><path d="M436.61888,138.333659 C433.66208,138.333659 430.75008,136.973946 428.86848,134.420493 C428.14528,133.469332 414.14848,116.073936 380.06208,125.349352 C376.12608,126.428186 371.94048,124.889731 369.62368,121.531941 C367.31328,118.17415 367.38368,113.731143 369.80288,110.443572 C370.64768,109.281751 391.24928,82.0108767 436.59968,82.0108767 L436.61888,82.0108767 C441.92448,82.0108767 446.21888,86.3006772 446.21888,91.5863243 C446.21888,96.878355 441.91808,101.161772 436.61888,101.161772 L436.59968,101.161772 C427.13408,101.161772 419.08928,102.598089 412.36928,104.711071 C433.89248,108.937035 443.83168,122.368196 444.42048,123.185301 C447.50528,127.487869 446.51328,133.469332 442.19968,136.546242 C440.50368,137.752749 438.55808,138.333659 436.61888,138.333659" fill="#2E2E30" id="Fill-19"/></g></g></g></svg>