<?xml version="1.0" ?><svg height="512px" version="1.1" viewBox="0 0 512 512" width="512px" xmlns="http://www.w3.org/2000/svg" xmlns:xlink="http://www.w3.org/1999/xlink"><title/><desc/><defs/><g fill="none" fill-rule="evenodd" id="SVG" stroke="none" stroke-width="1"><g id="Beach-Slippers"><g transform="translate(14.000000, 0.000000)"><path d="M172.361498,292.067737 C173.440179,275.521522 177.383891,259.249025 183.031505,243.496591 C199.101787,198.689058 278.649337,4.78083448 128.38293,13.3618738 C-45.0441951,23.2635995 21.8477503,210.992654 28.2511288,304.316589 C33.6170501,382.503954 2.56890904,505.813627 125.490416,498.792776 C209.96417,493.968508 165.518403,396.942545 172.361498,292.067737" fill="#FBAE3A" id="Fill-1"/><path d="M183.034941,243.497275 C198.493741,200.38679 272.599793,19.3638114 144.401682,13.3283435 C205.9758,62.4879821 148.345393,204.081975 134.528662,242.614537 C128.489424,259.454997 124.270889,276.849736 123.116632,294.531878 C117.39344,382.25145 145.226151,464.825136 114.356645,499.074021 C117.915604,499.108236 121.625716,499.012435 125.493852,498.793461 C209.960735,493.969192 165.514967,396.936387 172.364933,292.068421 C173.443614,275.522207 177.387326,259.249709 183.034941,243.497275" fill="#010201" fill-opacity="0.3" id="Fill-6"/><path d="M137.691188,23.3525576 C134.867381,23.3525576 131.961127,23.4415158 128.972425,23.6057462 C89.5834027,25.8570715 61.8949742,37.4763736 44.306295,59.141103 C8.77853725,102.915353 21.1043538,182.115472 31.011727,245.761602 C34.2752515,266.783096 37.3670115,286.64129 38.5281391,303.611767 C39.5862081,318.919411 39.2907733,335.376667 38.9747267,352.798777 C38.1433868,399.3102 37.277694,447.409184 62.630126,471.694757 C76.1789054,484.648432 96.5639098,490.129622 124.905043,488.548904 C139.882903,487.686694 150.31931,483.663049 156.812006,476.217937 C171.302055,459.610136 168.340836,424.061093 164.912418,382.887159 C162.597033,355.104846 159.972472,323.613663 162.074869,291.39713 C163.146679,274.974088 166.829309,258.167842 173.328876,240.040909 C174.180827,237.673254 175.197673,234.895023 176.3588,231.754116 C190.532802,193.269454 228.20418,91.0360189 194.648278,45.9752978 C183.449237,30.9413716 164.314677,23.3525576 137.691188,23.3525576 M115.554187,509.351424 C86.4229369,509.351424 64.3752528,501.831039 48.3461948,486.489181 C16.5079373,456.003909 17.4973005,400.979876 18.3698639,352.429259 C18.6721693,335.465625 18.9607335,319.446316 17.9713703,305.014568 C16.8652073,288.919987 13.8421531,269.486055 10.6404638,248.902509 C0.114738649,181.260105 -12.9874532,97.0714868 28.2841076,46.2353293 C49.4248755,20.1842792 82.9052011,5.67725885 127.797556,3.11800149 C166.341498,0.846147368 194.42842,11.2200355 211.1995,33.7469746 C251.38551,87.70351 212.367499,193.604758 195.706347,238.82971 C194.572702,241.902187 193.569598,244.625675 192.745128,246.94543 C186.891396,263.258985 183.593519,278.231324 182.645379,292.731502 C180.63917,323.435747 183.195025,354.119464 185.448575,381.190111 C189.268616,426.989869 192.559623,466.542028 172.373865,489.677988 C162.047387,501.523107 146.904633,507.859664 126.086783,509.043492 C122.472859,509.24878 118.961993,509.351424 115.554187,509.351424" fill="#2E2E30" id="Fill-3"/><path d="M139.136758,109.620059 C261.371208,119.131738 171.806355,304.315221 171.806355,304.315221 C171.806355,304.315221 166.0282,370.520608 139.136758,354.911875 C112.245317,339.303143 195.138838,259.254499 191.057714,222.05631 C181.858011,138.257739 139.136758,138.606728 139.136758,138.606728 C80.4620236,167.60024 28.7059611,262.764925 28.7059611,262.764925 C27.7578214,289.096535 97.5766329,357.293216 68.4247713,365.703182 C41.1417069,373.572557 28.740314,314.78491 28.740314,314.78491 L28.252503,304.315221 C10.3477772,140.782781 139.136758,109.620059 139.136758,109.620059 L139.136758,87.3189371" fill="#D73838" id="Fill-8"/><path d="M140.052606,119.996 C128.997846,123.136907 66.221377,144.035228 44.3523279,218.342649 C65.6305074,187.556289 98.4993515,147.224035 134.549273,129.411878 C135.950871,128.720741 137.489881,128.358066 139.049502,128.34438 L139.111337,128.34438 C141.52291,128.34438 175.944504,129.309234 193.258361,181.931397 C193.045373,167.999183 190.523871,155.038666 184.470892,144.562134 C176.088787,130.068799 161.550644,122.021509 140.052606,119.996 L140.052606,119.996 Z M160.925421,309.004683 C151.87,323.716992 142.038203,341.145945 144.202435,346.024957 C146.565914,347.352486 147.266713,347.003496 147.493442,346.880324 C153.17541,343.944705 158.726837,325.687757 160.925421,309.004683 L160.925421,309.004683 Z M38.9932772,313.445748 C41.9544963,326.775783 49.9930723,349.186392 59.7424222,355.009729 C61.6387017,356.145656 63.2945109,356.419374 65.2869785,355.91984 C65.1083434,348.76213 51.8481283,328.534417 43.7751994,316.210293 C42.0644255,313.603135 40.3880045,311.037035 38.752807,308.525678 L38.9932772,313.445748 Z M63.4731459,376.688145 C58.5194593,376.688145 53.6550903,375.319558 49.1205089,372.602913 C28.3026582,360.155616 19.583895,321.28775 18.656367,316.894586 C18.5395671,316.353995 18.4708614,315.813403 18.4502496,315.259125 L17.955568,304.789436 C1.97460406,158.980196 99.8803377,112.585103 128.826082,102.156471 L128.826082,87.32099 C128.826082,81.6481976 133.44311,77.0565888 139.131949,77.0565888 C144.820787,77.0565888 149.437815,81.6481976 149.437815,87.32099 L149.437815,100.500481 C173.842108,104.407796 191.609422,115.760224 202.341264,134.345633 C234.433733,189.910258 188.909285,292.061578 181.901295,307.06129 C180.568403,320.391326 175.353635,355.61875 156.974839,365.103057 C149.891273,368.764027 141.708415,368.298707 133.944662,363.782371 C128.894788,360.846752 125.500722,356.344101 124.133477,350.76711 C120.162283,334.563042 133.965274,312.877784 151.437153,285.410246 C165.198921,263.793418 182.31353,236.880158 180.815744,223.166918 C173.938296,160.588285 148.599605,150.707089 141.069452,149.160585 C92.1852905,175.177421 47.5471466,250.463382 39.1719123,265.155162 C40.7040511,273.968861 52.3496805,291.739961 61.0340908,304.987881 C79.0143929,332.421204 89.7737177,349.945958 84.5864315,363.871329 C82.4702935,369.544121 77.7502066,373.697782 71.2849929,375.55906 C68.6741733,376.311783 66.0564832,376.688145 63.4731459,376.688145 L63.4731459,376.688145 Z" fill="#2E2E30" id="Fill-10"/><path d="M311.276337,292.067737 C310.197656,275.521522 306.253944,259.249025 300.606329,243.496591 C284.536048,198.689058 204.988498,4.78083448 355.254905,13.3618738 C528.68203,23.2635995 461.790084,210.992654 455.386706,304.316589 C450.020785,382.503954 481.068926,505.813627 358.147418,498.792776 C273.673664,493.968508 318.119432,396.942545 311.276337,292.067737" fill="#FBAE3A" id="Fill-12"/><path d="M383.778109,17.0207907 C458.722371,80.7969366 411.37722,227.824219 405.763958,309.624653 C401.600388,370.30095 417.107282,455.399678 380.280985,498.523849 C477.13552,489.867538 450.367749,377.397073 455.383271,304.314536 C461.408767,216.567592 520.846136,45.3984385 383.778109,17.0207907" fill="#010201" fill-opacity="0.3" id="Fill-17"/><path d="M321.55953,291.396445 C323.661927,323.612979 321.037366,355.111005 318.728852,382.893317 C315.300434,424.060409 312.332344,459.609451 326.822393,476.217253 C333.315089,483.662365 343.751497,487.692853 358.736227,488.555063 C387.07049,490.135781 407.469235,484.65459 421.004273,471.694073 C446.356705,447.415343 445.497883,399.309516 444.659673,352.79125 C444.350497,335.375983 444.055062,318.918726 445.10626,303.611083 C446.267388,286.640606 449.366018,266.775568 452.629543,245.747232 C462.536916,182.107945 474.855862,102.907825 439.328104,59.1404187 C421.739425,37.4825323 394.050997,25.8563872 354.661974,23.6050619 C323.469551,21.8601137 301.366902,29.3531266 288.992992,45.9814564 C255.430219,91.0490205 293.101597,193.289299 307.28934,231.780803 C308.443597,234.914867 309.460443,237.679413 310.312394,240.040225 C316.811961,258.180843 320.48772,274.987089 321.55953,291.396445 M368.080213,509.357582 C364.672406,509.357582 361.168411,509.248095 357.554487,509.042807 C336.736637,507.85898 321.593883,501.522423 311.267405,489.684147 C291.074777,466.541344 294.372654,426.989185 298.185825,381.203112 C300.439374,354.125622 302.995229,323.435063 300.98902,292.730817 C300.040881,278.237483 296.743003,263.265143 290.896142,246.944745 C290.071672,244.638677 289.068568,241.922032 287.934923,238.856397 C271.273771,193.631446 232.242019,87.7165116 272.44177,33.7531332 C289.21285,11.2193512 317.217325,0.852306009 355.843714,3.1173172 C400.722328,5.67657455 434.209524,20.1835949 455.357162,46.234645 C496.614982,97.0708025 483.519661,181.245735 473.000806,248.888139 C469.799117,269.471684 466.776063,288.91246 465.6699,305.013884 C464.680536,319.445632 464.969101,335.458098 465.271406,352.428575 C466.143969,400.979192 467.126462,456.003225 435.288205,486.49534 C419.266017,501.830355 397.211462,509.357582 368.080213,509.357582" fill="#2E2E30" id="Fill-14"/><path d="M344.501077,109.620059 C222.266627,119.131738 311.831479,304.315221 311.831479,304.315221 C311.831479,304.315221 317.609635,370.520608 344.501077,354.911875 C371.392518,339.303143 288.498997,259.254499 292.58012,222.05631 C301.779824,138.257739 344.501077,138.606728 344.501077,138.606728 C403.175811,167.60024 454.931874,262.764925 454.931874,262.764925 C455.880013,289.096535 386.061202,357.293216 415.213063,365.703182 C442.496128,373.572557 454.897521,314.78491 454.897521,314.78491 L455.385332,304.315221 C473.290057,140.782781 344.501077,109.620059 344.501077,109.620059 L344.501077,87.3189371" fill="#D73838" id="Fill-19"/><path d="M344.519627,128.342327 L344.588333,128.342327 C346.141084,128.356013 347.680093,128.725531 349.081691,129.409825 C385.028554,147.167239 417.808081,187.321576 439.093131,218.066879 C417.107282,143.978431 354.681212,123.155383 343.578358,119.993947 C322.08032,122.019456 307.549048,130.066746 299.166943,144.560081 C293.120835,155.02977 290.585591,167.990287 290.372604,181.929344 C307.69333,129.314024 342.101184,128.342327 344.519627,128.342327 M322.719284,309.030002 C324.945351,325.719918 330.489907,343.963181 336.144393,346.885114 C336.371122,346.994601 337.06505,347.34359 339.311729,346.043433 C341.558408,341.157578 331.774705,323.74231 322.719284,309.030002 M418.350856,355.863043 C420.556312,356.36942 422.129674,356.061488 423.909154,355.007676 C434.022644,348.944837 442.088702,324.932981 444.644557,313.457381 L444.871287,308.530468 C443.24296,311.041825 441.566539,313.601082 439.862635,316.20824 C431.810318,328.49815 418.591326,348.657434 418.350856,355.863043 M420.164689,376.686092 C417.574481,376.686092 414.956791,376.30973 412.345971,375.557008 C405.887628,373.695729 401.160671,369.542068 399.051403,363.869276 C393.864117,349.950748 404.623442,332.419151 422.603744,304.978985 C431.288154,291.737908 442.933784,273.966808 444.465922,265.153109 C436.083818,250.461329 391.418191,175.141153 342.520289,149.138004 C335.2787,150.616078 309.733892,160.278301 302.828961,223.164865 C301.317434,236.878105 318.438914,263.791365 332.193811,285.415037 C349.66569,312.875731 363.468681,334.567832 359.504357,350.765057 C358.130242,356.342049 354.736176,360.851542 349.686302,363.780318 C341.922549,368.282969 333.739691,368.761974 326.656125,365.107847 C308.29107,355.62354 303.069431,320.389273 301.736539,307.059237 C294.72855,292.059526 249.204101,189.908205 281.29657,134.336737 C292.021542,115.758171 309.795727,104.405744 334.193149,100.505271 L334.193149,87.3189371 C334.193149,81.6529877 338.810177,77.0545359 344.499015,77.0545359 C350.187854,77.0545359 354.804882,81.6529877 354.804882,87.3189371 L354.804882,102.161261 C383.750626,112.596736 481.65636,159.067101 465.634173,305.423776 L465.187585,315.257072 C465.173844,315.81135 465.098268,316.358785 464.981468,316.899376 C464.05394,321.285697 455.335176,360.14672 434.517326,372.60086 C429.982744,375.317505 425.118375,376.686092 420.164689,376.686092" fill="#2E2E30" id="Fill-21"/></g></g></g></svg>