<?xml version="1.0" ?><svg height="512px" version="1.1" viewBox="0 0 512 512" width="512px" xmlns="http://www.w3.org/2000/svg" xmlns:xlink="http://www.w3.org/1999/xlink"><title/><desc/><defs/><g fill="none" fill-rule="evenodd" id="SVG" stroke="none" stroke-width="1"><g id="Pear"><g transform="translate(102.000000, 0.000000)"><path d="M243.336612,276.911581 L243.436559,276.844669 C243.436559,276.844669 213.696763,234.288403 212.086505,193.081537 C210.465142,151.863519 180.025716,127.451657 145.133094,127.451657 C110.240473,127.451657 79.801047,151.863519 78.1907891,193.081537 C76.5694261,234.288403 46.8407348,276.844669 46.8407348,276.844669 L46.951787,276.900429 C24.7746498,303.821505 11.104116,338.091789 11.104116,371.324931 C11.104116,441.214898 71.1167599,497.878521 145.133094,497.878521 C219.160534,497.878521 279.162073,441.214898 279.162073,371.324931 C279.162073,338.102941 265.502644,303.832657 243.336612,276.911581" fill="#FAD841" id="Fill-1"/><path d="M252.883775,289.900387 C255.682292,301.509682 257.325866,313.275107 257.325866,324.940163 C257.325866,404.309382 189.173091,468.656775 105.117632,468.656775 C84.7617516,468.656775 65.3720262,464.809314 47.6258743,457.973101 C72.079583,482.485331 106.661258,497.875176 145.140868,497.875176 C219.157203,497.875176 279.169846,441.211553 279.169846,371.321585 C279.169846,343.218391 269.319511,314.423769 252.883775,289.900387" fill="#FAAC28" id="Fill-3"/><path d="M56.9142857,281.790608 C56.536708,282.582404 56.0702885,283.329592 55.503922,284.009868 C34.3484655,309.681913 22.210453,341.498743 22.210453,371.319355 C22.210453,434.953016 77.3590077,486.720884 145.134205,486.720884 C212.920507,486.720884 268.057957,434.953016 268.057957,371.319355 C268.057957,341.521047 255.931049,309.704217 234.786698,284.02102 C234.209226,283.329592 233.731702,282.582404 233.354124,281.790608 C227.890353,273.593843 202.559331,233.591399 200.993494,193.510892 C199.505394,155.783469 170.998277,138.598142 145.134205,138.598142 C119.281238,138.598142 90.763016,155.783469 89.2860209,193.510892 C87.7090787,233.591399 62.3780571,273.604995 56.9142857,281.790608 M145.134205,509.025006 C65.1099429,509.025006 0,447.253739 0,371.319355 C0,336.926398 13.581692,300.503766 37.3024557,271.129237 C37.4357185,270.895044 37.5800864,270.672003 37.7355596,270.448962 C38.0131902,270.047487 65.6318885,229.978132 67.0977784,192.641031 C68.8301937,148.400804 101.646138,116.29402 145.134205,116.29402 C188.622272,116.29402 221.449321,148.400804 223.181737,192.641031 C224.647626,230.13426 252.244114,270.036335 252.521745,270.43781 C252.677218,270.660851 252.821586,270.87274 252.954849,271.106933 C276.686718,300.503766 290.26841,336.926398 290.26841,371.319355 C290.26841,447.253739 225.158467,509.025006 145.134205,509.025006" fill="#454849" id="Fill-5"/><path d="M72.1295565,307.198349 C70.7636137,307.198349 69.3754603,306.863787 68.1094645,306.150055 C64.0782673,303.919643 62.6234826,298.834303 64.8445279,294.786105 C68.5314631,288.083716 72.6959231,281.593216 77.2379607,275.459583 C77.349013,275.236541 77.4711705,275.0135 77.6155384,274.801611 C77.7821168,274.52281 95.1840067,246.832242 101.602828,215.92988 C102.546772,211.413295 106.911126,208.491455 111.464269,209.450533 C115.961885,210.398458 118.849244,214.836978 117.916405,219.353563 C111.575321,249.820994 96.1168457,276.47442 92.4299105,282.541142 C92.1633851,283.199113 91.8191231,283.812476 91.3860192,284.381232 C86.9883495,290.236064 82.9682576,296.447762 79.4256903,302.882501 C77.9042743,305.63706 75.0613363,307.198349 72.1295565,307.198349" fill="#FEFEFE" id="Fill-7"/><path d="M123.928775,180.270049 C128.182077,184.541289 128.182077,191.466719 123.928775,195.737958 C119.675473,200.009198 112.779128,200.009198 108.525826,195.737958 C104.272524,191.466719 104.272524,184.541289 108.525826,180.270049 C112.779128,175.99881 119.675473,175.99881 123.928775,180.270049" fill="#FEFEFE" id="Fill-9"/><path d="M145.127542,131.260086 C139.974717,131.260086 135.343837,127.635666 134.255525,122.360741 C133.689158,119.561574 120.529465,53.2737223 150.724576,5.4090757 C154.011723,0.20106313 160.874753,-1.36022543 166.049788,1.95193673 C171.224824,5.25294684 172.76845,12.1337686 169.481303,17.3417812 C144.03923,57.6787864 155.888506,117.253097 156.010664,117.855309 C157.254449,123.888574 153.38983,129.788014 147.381903,131.025893 C146.626747,131.182022 145.871592,131.260086 145.127542,131.260086" fill="#454849" id="Fill-11"/><path d="M294.179671,64.1559036 C171.711233,-11.3100944 151.077722,98.5711643 151.077722,98.5711643 C151.077722,98.5711643 219.030603,187.140834 294.179671,64.1559036" fill="#3BB777" id="Fill-14"/><path d="M294.179671,64.1559036 L151.077722,98.5711643 C151.077722,98.5711643 219.030603,187.140834 294.179671,64.1559036" fill="#229857" id="Fill-16"/><path d="M163.292361,95.6036009 C170.5996,103.242763 188.756645,119.502468 212.321936,118.186525 C234.787809,116.926342 257.053788,100.019817 278.586822,67.9018809 C244.826934,49.0214413 217.319288,44.1368385 196.674671,53.2703766 C175.286005,62.7942369 166.324088,85.4775293 163.292361,95.6036009 M209.578945,140.568712 C169.766708,140.568712 143.414005,106.856031 142.281272,105.372806 C140.348963,102.852441 139.582702,99.6183429 140.160174,96.4957658 C140.526646,94.5999154 149.310881,49.9470624 187.679438,32.8844088 C217.341498,19.6915204 255.132584,27.0184246 299.986593,54.6420802 C305.217155,57.8650258 306.849623,64.7235435 303.651318,69.9873163 C276.121462,115.030491 245.737562,138.739773 213.343616,140.468343 C212.077621,140.535255 210.811625,140.568712 209.578945,140.568712" fill="#454849" id="Fill-18"/></g></g></g></svg>