<?xml version="1.0" ?><svg height="60px" version="1.1" viewBox="0 0 56 60" width="56px" xmlns="http://www.w3.org/2000/svg" xmlns:xlink="http://www.w3.org/1999/xlink"><title/><desc/><defs/><g fill="none" fill-rule="evenodd" id="Page-1" stroke="none" stroke-width="1"><g id="028---Snowman" transform="translate(0.000000, 1.000000)"><g fill-rule="nonzero" id="Colour" transform="translate(11.000000, 0.000000)"><path d="M17,58 C16.49,58 15.99,57.99 15.51,57.98 C0.06,57.57 1,50.57 1,42 C0.994243799,37.1627808 3.182522,32.5839466 6.95,29.55 C7.01,29.51 7.06,29.46 7.12,29.42 C7.70002823,28.9528884 8.11386191,28.3110954 8.3,27.59 C8.51313972,26.5770204 9.08485712,25.6750563 9.91,25.05 C6.51273955,21.6354641 6.03348863,16.2838289 8.77,12.32 C9.74,12.25 12.58,12.21 15.66,12.21 C19.62,12.19 23.97,12.23 25.23,12.32 C27.9665114,16.2838289 27.4872605,21.6354641 24.09,25.05 C23.5468618,25.5941595 22.942886,26.0739847 22.29,26.48 C22.462851,26.836722 22.6034123,27.2082054 22.71,27.59 C22.8961116,28.311107 23.3099503,28.9529077 23.89,29.42 C23.95,29.46 24,29.51 24.06,29.55 C24.4262868,29.8411101 24.7767847,30.1515511 25.11,30.48 C25.4302132,30.3596822 25.7439683,30.2228316 26.05,30.07 C26.4,29.91 26.73,29.73 27.05,29.55 C30.817478,32.5839466 33.0057562,37.1627808 33,42 C33,50.84 34,58 17,58 Z" fill="#D7DEE2" id="Shape"/><path d="M15.51,57.98 C0.06,57.57 1,50.57 1,42 C0.994243799,37.1627808 3.182522,32.5839466 6.95,29.55 C7.01,29.51 7.06,29.46 7.12,29.42 C7.70002823,28.9528884 8.11386191,28.3110954 8.3,27.59 C8.51313972,26.5770204 9.08485712,25.6750563 9.91,25.05 C6.51273955,21.6354641 6.03348863,16.2838289 8.77,12.32 C9.74,12.25 12.58,12.21 15.66,12.21 C18.61,12.21 21.29,12.25 22.24,12.32 C24.9765443,16.2838202 24.4972913,21.6354785 21.1,25.05 C21.6139491,25.4154207 22.0240359,25.9082141 22.29,26.48 C22.462851,26.836722 22.6034123,27.2082054 22.71,27.59 C22.8961116,28.311107 23.3099503,28.9529077 23.89,29.42 C23.95,29.46 24,29.51 24.06,29.55 C24.4262868,29.8411101 24.7767847,30.1515511 25.11,30.48 C28.2459207,33.4911466 30.0159305,37.6524757 30.01,42 C30.01,50.57 30.95,57.56 15.51,57.98 Z" fill="#FFFFFF" id="Shape"/><path d="M25.52,39.9 L21.68,39.9 C22.5506948,37.1405403 22.4196679,34.1623332 21.31,31.49 C21.833563,31.4019129 22.3512083,31.2816856 22.86,31.13 L22.86,31.14 C24.7834327,33.6388563 25.7292209,36.7535571 25.52,39.9 Z" fill="#00939F" id="Shape"/><path d="M29.9,42.9 L24.9,42.9 C25.1850122,41.9226008 25.359437,40.9163037 25.42,39.9 C25.6292209,36.7535571 24.6834327,33.6388563 22.76,31.14 L22.76,31.13 C23.8589934,30.8495036 24.927533,30.4609438 25.95,29.97 C31.89,37.93 29.9,42.9 29.9,42.9 Z" fill="#00C6DB" id="Shape"/><path d="M27.05,29.55 C26.73,29.73 26.4,29.91 26.05,30.07 C25.7439683,30.2228316 25.4302132,30.3596822 25.11,30.48 C24.7767847,30.1515511 24.4262868,29.8411101 24.06,29.55 C24,29.51 23.95,29.46 23.89,29.42 C23.3099503,28.9529077 22.8961116,28.311107 22.71,27.59 C22.6034123,27.2082054 22.462851,26.836722 22.29,26.48 C22.942886,26.0739847 23.5468618,25.5941595 24.09,25.05 C24.9151429,25.6750563 25.4868603,26.5770204 25.7,27.59 C25.8861381,28.3110954 26.2999718,28.9528884 26.88,29.42 C26.94,29.46 26.99,29.51 27.05,29.55 Z" fill="#00939F" id="Shape"/><path d="M25.11,30.48 C24.3800872,30.78665 23.6279203,31.0373723 22.86,31.23 C22.3512083,31.3816856 21.833563,31.5019129 21.31,31.59 C19.8901272,31.8667937 18.4465949,32.0041135 17,32 C13.495594,32.0563268 10.0353209,31.2127776 6.95,29.55 C7.01,29.51 7.06,29.46 7.12,29.42 C7.70002823,28.9528884 8.11386191,28.3110954 8.3,27.59 C8.51313972,26.5770204 9.08485712,25.6750563 9.91,25.05 C13.1958835,28.3602378 18.3359896,28.9539657 22.29,26.48 C22.462851,26.836722 22.6034123,27.2082054 22.71,27.59 C22.8961116,28.311107 23.3099503,28.9529077 23.89,29.42 C23.95,29.46 24,29.51 24.06,29.55 C24.4262868,29.8411101 24.7767847,30.1515511 25.11,30.48 Z" fill="#00C6DB" id="Shape"/><circle cx="17" cy="37" fill="#728F9C" id="Oval" r="2"/><circle cx="17" cy="44" fill="#728F9C" id="Oval" r="2"/><circle cx="17" cy="51" fill="#728F9C" id="Oval" r="2"/><path d="M29,10.5 C29,11.22 27.55,11.86 25.23,12.32 C22.5133883,12.7990645 19.7583998,13.0266942 17,13 C16.49,13 15.99,12.99 15.5,12.98 C13.2427557,12.9381 10.99238,12.7174094 8.77,12.32 C6.45,11.86 5,11.22 5,10.5 C5,9.58 7.41,8.77 11,8.34 L11,2 C11.0032238,0.896768606 11.8967686,0.00322381203 13,2.22044605e-16 L21,2.22044605e-16 C22.1032314,0.00322381203 22.9967762,0.896768606 23,2 L23,8.34 C26.59,8.77 29,9.58 29,10.5 Z" fill="#475962" id="Shape"/><path d="M26,10.5 C26,11.22 24.55,11.86 22.23,12.32 C20.00762,12.7174094 17.7572443,12.9381 15.5,12.98 C13.2427557,12.9381 10.99238,12.7174094 8.77,12.32 C6.45,11.86 5,11.22 5,10.5 C5,9.58 7.41,8.77 11,8.34 L11,2 C11.0032238,0.896768606 11.8967686,0.00322381203 13,2.22044605e-16 L18,2.22044605e-16 C19.1032314,0.00322381203 19.9967762,0.896768606 20,2 L20,8.34 C23.59,8.77 26,9.58 26,10.5 Z" fill="#728F9C" id="Shape"/><circle cx="13.5" cy="17.5" fill="#728F9C" id="Oval" r="1.5"/><circle cx="20.5" cy="17.5" fill="#728F9C" id="Oval" r="1.5"/><path d="M19,21.5 C19,22.60457 17,25 17,25 C17,25 15,22.60457 15,21.5 C15,20.3954305 15.8954305,19.5 17,19.5 C18.1045695,19.5 19,20.3954305 19,21.5 Z" fill="#FF6E2C" id="Shape"/><rect fill="#00939F" height="2" id="Rectangle-path" width="12" x="11" y="5"/><rect fill="#00C6DB" height="2" id="Rectangle-path" width="9" x="11" y="5"/></g><g id="Outline" stroke="#000000" stroke-linejoin="round"><path d="M28,58 C11,58 12,50.84 12,42 C11.9942438,37.1627808 14.182522,32.5839466 17.95,29.55 C18.0050333,29.5056667 18.0605167,29.4615833 18.11645,29.41775 C18.6976745,28.951008 19.1128404,28.3092321 19.30028,27.58775 C19.5101282,26.5741202 20.0824636,25.671824 20.91,25.05 C22.7862342,26.9382101 25.3381524,28.000008 28.00003,28.000008 C30.6619076,28.000008 33.2138258,26.9382101 35.09006,25.05 C35.9175774,25.6718259 36.4898976,26.5741134 36.69974,27.58773 C36.8871796,28.3092121 37.3023455,28.950988 37.88357,29.41773 C37.9394967,29.4615567 37.99498,29.50564 38.05002,29.54998 C41.817496,32.5839349 44.0057671,37.1627772 44,42 C44,50.84 45,58 28,58 Z" id="Shape" stroke-width="2"/><path d="M20.91,25.05 C17.5127511,21.6354587 17.033501,16.2838321 19.77,12.32" id="Shape" stroke-linecap="round" stroke-width="2"/><path d="M36.23,12.32 C38.966499,16.2838321 38.4872489,21.6354587 35.09,25.05" id="Shape" stroke-linecap="round" stroke-width="2"/><circle cx="28" cy="37" id="Oval" r="2"/><circle cx="28" cy="44" id="Oval" r="2"/><circle cx="28" cy="51" id="Oval" r="2"/><path d="M22,8.34 C18.41,8.77 16,9.58 16,10.5 C16,11.22 17.45,11.86 19.77,12.32 C22.4866107,12.7990723 25.2415999,13.0267021 28,13 C30.7584001,13.0267021 33.5133893,12.7990723 36.23,12.32 C38.55,11.86 40,11.22 40,10.5 C40,9.58 37.59,8.77 34,8.34" id="Shape" stroke-linecap="round" stroke-width="2"/><path d="M22,9 L22,2 C22.0032293,0.896770878 22.8967709,0.00322927335 24,0 L32,0 C33.1032291,0.00322927335 33.9967707,0.896770878 34,2 L34,9" id="Shape" stroke-linecap="round" stroke-width="2"/><path d="M38.05,29.55 C34.9646733,31.2127625 31.5044042,32.0563107 28,32 C24.4955958,32.0563107 21.0353267,31.2127625 17.95,29.55" id="Shape" stroke-linecap="round" stroke-width="2"/><path d="M18.4,15.21 L18.39,15.21" id="Shape" stroke-linecap="round" stroke-width="2"/><path d="M34,32 C34,32 38,36 36,43 L41,43 C41,43 43,38 37,30" id="Shape" stroke-linecap="round"/><path d="M36.53,40 L32.68,40 C33.5507095,37.2405422 33.4196823,34.2623299 32.31,31.59" id="Shape" stroke-linecap="round"/><circle cx="24.5" cy="17.5" id="Oval" r="1.5" stroke-linecap="round"/><circle cx="31.5" cy="17.5" id="Oval" r="1.5" stroke-linecap="round"/><path d="M30,21.5 C30,22.60457 28,25 28,25 C28,25 26,22.60457 26,21.5 C26,20.3954305 26.8954305,19.5 28,19.5 C29.1045695,19.5 30,20.3954305 30,21.5 Z" id="Shape" stroke-linecap="round"/><path d="M22,5 L34,5" id="Shape"/><path d="M22,7 L34,7" id="Shape"/><path d="M4,16 L4,26.17 C4.00025564,26.7029094 4.21253479,27.2138185 4.59,27.59 L9,32 L13.12,36.12" id="Shape" stroke-linecap="round" stroke-width="2"/><path d="M4,21 L0.79289,17.79289 C0.605356463,17.6053548 0.500000945,17.3510037 0.5,17.08579 L0.5,14" id="Shape" stroke-linecap="round"/><path d="M4,20 L8,16" id="Shape" stroke-linecap="round"/><path d="M9,32 L9,27" id="Shape" stroke-linecap="round"/><path d="M52,16 L52,26.17 C51.9997444,26.7029094 51.7874652,27.2138185 51.41,27.59 L47,32 L42.88,36.12" id="Shape" stroke-linecap="round" stroke-width="2"/><path d="M52,21 L55.20711,17.79289 C55.3946435,17.6053548 55.4999991,17.3510037 55.5,17.08579 L55.5,14" id="Shape" stroke-linecap="round"/><path d="M52,20 L48,16" id="Shape" stroke-linecap="round"/><path d="M47,32 L47,27" id="Shape" stroke-linecap="round"/></g></g></g></svg>