<?xml version="1.0" ?><svg height="512px" version="1.1" viewBox="0 0 512 512" width="512px" xmlns="http://www.w3.org/2000/svg" xmlns:xlink="http://www.w3.org/1999/xlink"><title/><desc/><defs><polygon id="path-1" points="0.422872471 196.345065 209.944795 196.345065 209.944795 0.142178931 0.422872471 0.142178931"/><polygon id="path-3" points="0 0.0200744888 0 18.4274244 40.3224597 18.4274244 40.3224597 0.0200744888 2.502616e-19 0.0200744888"/><polygon id="path-5" points="5.6715385 196.345065 215.193461 196.345065 215.193461 0.141123016 5.6715385 0.141123016 5.6715385 196.345065"/></defs><g fill="none" fill-rule="evenodd" id="SVG" stroke="none" stroke-width="1"><g id="Sunglass"><g transform="translate(0.000000, 157.000000)"><path d="M384.042068,19.5238888 L127.025474,19.5238888 C121.928845,19.5238888 117.79245,15.4067782 117.79245,10.3202139 C117.79245,5.23364955 121.928845,1.11653896 127.025474,1.11653896 L384.042068,1.11653896 C389.138697,1.11653896 393.275091,5.23364955 393.275091,10.3202139 C393.275091,15.4067782 389.138697,19.5238888 384.042068,19.5238888" fill="#2E2E30" id="Fill-1"/><path d="M225.333782,71.4792474 C225.333782,135.880429 160.050152,188.089809 102.713076,188.089809 C45.3821566,188.089809 34.2779071,135.880429 34.2779071,71.4792474 C34.2779071,7.07806601 80.7569468,10.3177596 138.094022,10.3177596 C195.424942,10.3177596 225.333782,7.07806601 225.333782,71.4792474" fill="#3F3F3F" id="Fill-3"/><g id="Group-7" transform="translate(24.621396, 0.945964)"><mask fill="white" id="mask-2"><use xlink:href="#path-1"/></mask><g id="Clip-6"/><path d="M98.0590171,18.5509272 C68.5625851,18.5509272 43.5103149,19.489702 30.510218,32.4116616 C22.6867695,40.1856991 18.8889192,52.6597465 18.8889192,70.5332832 C18.8889192,146.819477 36.0438767,177.94017 78.0972206,177.94017 C129.451297,177.94017 191.478748,130.025838 191.478748,70.5332832 C191.478748,49.0764491 188.111772,35.7372562 180.885392,28.552254 C170.704445,18.4343473 150.047094,18.5202483 121.363168,18.5631988 L113.472011,18.5754703 L105.574698,18.5631988 C103.04485,18.557063 100.527312,18.5509272 98.0590171,18.5509272 M78.0972206,196.34752 C9.24964283,196.34752 0.422872471,129.111606 0.422872471,70.5332832 C0.422872471,47.5179601 5.9996186,30.7856791 17.4670336,19.3792579 C36.9918004,-0.0220888198 68.8149544,0.0576763629 105.623941,0.155848896 L113.472011,0.168120462 L121.30777,0.155848896 C154.429703,0.0638121462 178.312456,0.00245431332 193.928577,15.5198503 C205.002049,26.5335813 209.944795,43.499022 209.944795,70.5332832 C209.944795,141.389309 139.065952,196.34752 78.0972206,196.34752" fill="#2E2E30" id="Fill-5" mask="url(#mask-2)"/></g><g id="Group-10" transform="translate(0.000000, 61.217323)"><mask fill="white" id="mask-4"><use xlink:href="#path-3"/></mask><g id="Clip-9"/><path d="M31.0894363,18.4274244 L9.23179232,18.4274244 C4.13516341,18.4274244 -0.00123106978,14.3103138 -0.00123106978,9.22374942 C-0.00123106978,4.13718508 4.13516341,0.0200744888 9.23179232,0.0200744888 L31.0894363,0.0200744888 C36.1860653,0.0200744888 40.3224597,4.13718508 40.3224597,9.22374942 C40.3224597,14.3103138 36.1860653,18.4274244 31.0894363,18.4274244" fill="#2E2E30" id="Fill-8" mask="url(#mask-4)"/></g><path d="M203.671263,28.7717414 C191.034332,16.1504352 168.542687,17.230333 136.682601,17.230333 C84.7622324,17.230333 42.6719564,14.2974286 42.6719564,72.6180488 C42.6719564,103.149706 45.4972616,130.576658 55.5797231,149.855289 C70.2109875,105.898537 107.814014,49.7008982 203.671263,28.7717414" fill="#636363" id="Fill-11"/><path d="M285.738068,71.4792474 C285.738068,135.880429 351.021699,188.089809 408.358774,188.089809 C465.689694,188.089809 476.793943,135.880429 476.793943,71.4792474 C476.793943,7.07806601 430.314904,10.3177596 372.977828,10.3177596 C315.646908,10.3177596 285.738068,7.07806601 285.738068,71.4792474" fill="#3F3F3F" id="Fill-13"/><g id="Group-17" transform="translate(270.835353, 0.945964)"><mask fill="white" id="mask-6"><use xlink:href="#path-5"/></mask><g id="Clip-16"/><path d="M87.1068048,18.5509272 C62.1530202,18.5509272 44.0439837,19.293357 34.7247854,28.5583897 C27.4984058,35.7372562 24.1375853,49.0764491 24.1375853,70.5332832 C24.1375853,130.025838 86.1650364,177.94017 137.519112,177.94017 C179.572456,177.94017 196.727414,146.819477 196.727414,70.5332832 C196.727414,52.6536107 192.923408,40.1856991 185.106115,32.4116616 C171.016521,18.4036684 142.720382,18.4834336 110.04779,18.5631988 L102.144322,18.5754703 L94.2531649,18.5631988 C91.8156467,18.557063 89.4273713,18.5509272 87.1068048,18.5509272 M137.519112,196.34752 C76.544226,196.34752 5.6715385,141.389309 5.6715385,70.5332832 C5.6715385,43.499022 10.6081283,26.5335813 21.6877564,15.5198503 C37.2977213,0.0085900966 61.1681644,0.0515405796 94.308563,0.155848896 L102.144322,0.168120462 L109.998547,0.155848896 C146.826,0.0638121462 178.624533,-0.0220888198 198.143144,19.3792579 C209.610559,30.7795433 215.193461,47.5179601 215.193461,70.5332832 C215.193461,129.111606 206.360535,196.34752 137.519112,196.34752" fill="#2E2E30" id="Fill-15" mask="url(#mask-6)"/></g><g fill="#2E2E30" id="Group-20" transform="translate(466.700479, 61.217323)"><path d="M35.1408101,18.4274244 L10.0946953,18.4274244 C4.99806638,18.4274244 0.861671908,14.3103138 0.861671908,9.22374942 C0.861671908,4.13718508 4.99806638,0.0200744888 10.0946953,0.0200744888 L35.1408101,0.0200744888 C40.237439,0.0200744888 44.3738335,4.13718508 44.3738335,9.22374942 C44.3738335,14.3103138 40.237439,18.4274244 35.1408101,18.4274244" id="Fill-18"/></g><path d="M285.742992,61.6208844 C283.133124,61.6208844 280.541722,60.5225792 278.719739,58.405734 C278.245777,57.8903282 271.616466,51.1041518 255.538695,51.1041518 C239.177778,51.1041518 232.59771,58.1234879 232.326874,58.4241413 C228.953743,62.1240186 223.17387,62.5596592 219.37602,59.2954225 C215.584325,56.02505 215.018033,50.4292157 218.200348,46.569808 C219.369865,45.152442 230.369473,32.696802 255.538695,32.696802 C280.701761,32.696802 291.70137,45.152442 292.864731,46.569808 C296.1086,50.4967093 295.542308,56.2950245 291.602884,59.5285823 C289.885542,60.9336767 287.805034,61.6208844 285.742992,61.6208844" fill="#2E2E30" id="Fill-21"/><path d="M446.777384,27.8108777 C430.145631,16.2449262 403.209825,17.2573305 372.783935,17.2573305 C322.266986,17.2573305 295.915937,14.4041913 295.915937,71.1479151 C295.915937,88.8864646 301.535771,105.575795 310.811882,120.142145 C330.619795,82.9163475 369.737037,43.7884574 446.777384,27.8108777" fill="#636363" id="Fill-23"/></g></g></g></svg>